<svg xmlns="http://www.w3.org/2000/svg" width="300pt" height="300pt" viewBox="0 0 512 512"><path id="shape0" transform="translate(16.5925925925927, 177.777777777778)" fill="#ffd200" fill-rule="evenodd" stroke="#000" stroke-width="11" stroke-linecap="square" stroke-linejoin="bevel" d="M16 1.18519L111.407 0.592593L112 80.5926L218.667 0C221.827 0 223.407 0.987654 223.407 2.96296C223.407 4.93827 223.802 30.8148 224.593 80.5926L330.074 0.592593C334.42 -0.197531 336.593 1.38272 336.593 5.33333C336.593 9.28395 336.593 34.3704 336.593 80.5926L440.296 1.77778C445.432 -1.38272 447.802 0.592593 447.407 7.7037C447.012 14.8148 447.407 102.914 448.593 272C451.358 272 454.123 272 456.889 272C461.037 272 464.593 276.148 464 286.222C463.605 292.938 463.407 296.691 463.407 297.481C461.827 302.617 458.667 305.185 453.926 305.185C449.185 305.185 300.444 304.988 7.7037 304.593C3.35802 302.617 0.987654 299.654 0.592593 295.704C0.197531 291.753 0 287.21 0 282.074C1.58025 275.358 3.95062 272 7.11111 272C10.2716 272 13.4321 272 16.5926 272C16.5926 272 16.3951 181.728 16 1.18519Z"/><path id="shape1" transform="translate(32.118974569378, 118.792728393618)" fill="#ffd200" fill-rule="evenodd" stroke="#000" stroke-width="10" stroke-linecap="square" stroke-linejoin="bevel" d="M0 47.8616L95.9761 48.1306L96.4006 13.4944C94.0412 4.82221 89.334 0.38722 82.2791 0.189397C75.2241 -0.00842601 52.0518 -0.051281 12.7622 0.0608316C4.73655 1.46149 0.703305 6.01043 0.662436 13.7077C0.601131 25.2535 0.601131 25.2535 0 47.8616Z"/><path id="shape2" transform="translate(59.1060154963602, 103.435198301247)" fill="#ffd200" fill-rule="evenodd" d="M36.3882 32.9074L2.13163e-14 0C2.13163e-14 0 12.1294 10.9691 36.3882 32.9074Z"/><path id="shape3" transform="translate(69.8501514552975, -4.43356518507405)" fill="#ffd200" fill-rule="evenodd" stroke="#000" stroke-width="10" stroke-linecap="square" stroke-linejoin="bevel" d="M36.8979 51.791C51.0157 -4.42998 125.965 19.0892 116.352 28.9344C162.536 -11.9433 211.67 -13.2456 228.363 49.2824C232.649 65.3366 208.752 97.2469 199.47 99.7249C187.382 108.063 154.369 103.354 146.383 96.4694C142.879 94.442 127.864 79.9481 125.541 79.8064C125.581 80.8324 105.584 100.69 95.4486 100.785C80.0827 102.506 69.2273 99.9564 59.7073 93.3776C58.7136 92.9342 50.5869 85.3181 50.5418 85.358C43.0242 91.5268 45.7269 89.9346 28.3065 97.4196C27.2816 97.3572 16.5945 96.023 15.6168 95.6781C14.2787 95.206 8.92436 90.247 7.61473 89.9255C-11.8536 60.9766 9.88859 48.7129 29.4304 50.3674C30.5037 50.2551 38.2009 49.4818 38.0676 51.6686"/></svg>