<svg xmlns="http://www.w3.org/2000/svg" width="326.16pt" height="155.52pt" viewBox="0 0 326.16 155.52"><path id="shape0" transform="matrix(0.994171371432356 0 0 0.989004973826811 4.88453106964198 7.02882059500904)" fill="#d80000" fill-rule="evenodd" stroke="maroon" stroke-width="10.8" stroke-linecap="square" stroke-linejoin="bevel" d="M11.0107 36.0047L22.9722 34.1964L43.6792 27.0422C45.4005 26.4833 52.7934 23.0972 65.8577 16.8843C78.9219 10.6712 85.454 7.56478 85.454 7.56478L98.2169 2.67658C100.75 1.6061 102.926 1.0235 104.746 0.928781C106.565 0.83406 107.475 0.786699 107.475 0.786699L120.45 0L184.548 0.960781L195.906 2.48136L203.144 4.43867L211.519 8.33755L216.789 13.6948L219.432 18.2997L219.472 21.9285L219.243 23.9411L272.526 24.5758C276.264 24.8505 278.627 25.2709 279.618 25.8367C280.609 26.4027 281.104 26.6857 281.104 26.6857L287.145 31.2247L291.644 37.4002L294.007 44.4649L293.328 48.4647C297.545 48.4921 300.743 48.8567 302.925 49.5581C305.106 50.2597 306.197 50.6105 306.197 50.6105L311.669 54.1788L314.362 58.3364L314.652 61.767L314.539 66.7376L311.744 73.8969L306.499 77.8267L301.259 80.1743L298.748 82.3799L298.29 86.4051C298.169 88.8074 297.775 90.9521 297.108 92.8394C296.442 94.7266 296.109 95.6701 296.109 95.6701L291.903 100.854L284.445 106.8L276.725 109.091L272.555 109.975L272.017 116.709L269.744 122.792L264.098 128.718L255.402 133.617L238.023 139.338L207.004 143.732L164.946 147.774L139.644 147.609L130.27 146.541L59.2544 124.859L32.7757 119.124L11.8409 118.324C10.1061 117.673 8.68758 116.228 7.58532 113.989C6.48305 111.749 5.93192 110.629 5.93192 110.629L3.44698 102.645L1.31738 91.529L0 73.8969L0.630119 59.7387C1.05315 56.0116 1.4896 53.4942 1.93948 52.1864C2.38937 50.8785 2.6143 50.2246 2.6143 50.2246C2.78351 48.7338 3.25878 47.2024 4.0401 45.6302C4.82141 44.0581 5.21207 43.2721 5.21207 43.2721C6.42634 40.5413 7.13327 38.9607 7.33282 38.5304C7.53238 38.1001 7.63216 37.885 7.63216 37.885C7.63216 37.885 8.75834 37.2582 11.0107 36.0047Z"/><g id="group0" transform="matrix(0.1 0 0 -0.1 -0.284621861984562 155.253565545647)" fill="maroon" stroke="#000" stroke-width="14.4" stroke-linecap="square" stroke-linejoin="bevel" stroke-dasharray="14.4,28.8"><path id="shape0" transform="translate(5.12238938142656, 2.22730224654015)" fill="#000" stroke="#000" stroke-opacity="0" stroke-width="0" stroke-linecap="square" stroke-linejoin="bevel" d="M1179.88 1537.77C1025.88 1524.77 953.878 1501.77 779.878 1411.77C492.878 1263.77 323.878 1198.77 180.878 1182.77C131.878 1176.77 114.878 1169.77 89.8776 1144.77C-6.12239 1047.77 -29.1224 751.773 39.8776 482.773C66.8776 374.773 95.8776 319.773 127.878 313.773C139.878 310.773 198.878 306.773 258.878 302.773C454.878 291.773 603.878 255.773 984.878 127.773C1219.88 48.7727 1367.88 10.7727 1474.88 1.7727C1605.88 -9.2273 2089.88 32.7727 2354.88 77.7727C2568.88 114.773 2661.88 147.773 2736.88 215.773C2783.88 258.773 2804.88 300.773 2804.88 355.773L2804.88 393.773L2863.88 405.773C2983.88 430.773 3071.88 525.773 3077.88 638.773C3080.88 688.773 3082.88 692.773 3110.88 698.773C3244.88 725.773 3296.88 891.773 3199.88 983.773C3166.88 1013.77 3101.88 1037.77 3050.88 1037.77C3028.88 1037.77 3024.88 1041.77 3024.88 1067.77C3024.88 1137.77 2966.88 1220.77 2889.88 1259.77C2835.88 1287.77 2664.88 1300.77 2448.88 1291.77L2277.88 1285.77L2271.88 1324.77C2258.88 1404.77 2164.88 1478.77 2034.88 1512.77C1931.88 1539.77 1382.88 1555.77 1179.88 1537.77ZM1879.88 1507.77C2101.88 1493.77 2221.88 1432.77 2249.88 1316.77L2255.88 1290.77L2043.88 1284.77C1926.88 1280.77 1705.88 1277.77 1552.88 1277.77C1326.88 1277.77 1267.88 1274.77 1237.88 1262.77C1188.88 1241.77 1202.88 1232.77 1261.88 1246.77C1292.88 1253.77 1573.88 1257.77 2074.88 1259.77L2839.88 1262.77L2880.88 1240.77C2950.88 1202.77 3004.88 1123.77 3004.88 1057.77C3004.88 1031.77 3000.88 1027.77 2977.88 1027.77C2899.88 1026.77 1802.88 948.773 1797.88 943.773C1793.88 940.773 1793.88 935.773 1796.88 932.773C1801.88 927.773 2722.88 985.773 2968.88 1006.77C3100.88 1017.77 3143.88 1007.77 3193.88 953.773C3229.88 914.773 3234.88 834.773 3202.88 787.773C3157.88 719.773 3165.88 721.773 2513.88 677.773C2186.88 655.773 1902.88 636.773 1881.88 633.773C1843.88 629.773 1826.88 621.773 1835.88 612.773C1838.88 610.773 2101.88 626.773 2419.88 647.773C2738.88 669.773 3011.88 687.773 3027.88 687.773C3052.88 687.773 3054.88 684.773 3054.88 645.773C3053.88 552.773 2980.88 464.773 2881.88 434.773C2852.88 425.773 2615.88 398.773 2349.88 372.773C2085.88 347.773 1863.88 324.773 1855.88 321.773C1847.88 318.773 1844.88 313.773 1850.88 308.773C1855.88 304.773 2050.88 319.773 2284.88 343.773C2518.88 367.773 2726.88 386.773 2748.88 386.773L2787.88 387.773L2781.88 341.773C2771.88 249.773 2673.88 173.773 2513.88 133.773C2262.88 69.7727 1622.88 6.7727 1447.88 27.7727C1329.88 42.7727 1283.88 54.7727 969.878 157.773C571.878 287.773 397.878 327.773 218.878 327.773C146.878 327.773 135.878 330.773 115.878 351.773C66.8776 403.773 24.8776 611.773 24.8776 802.773C24.8776 974.773 60.8776 1105.77 117.878 1141.77C129.878 1148.77 168.878 1158.77 204.878 1161.77C311.878 1173.77 466.878 1231.77 722.878 1358.77C986.878 1488.77 1034.88 1504.77 1204.88 1517.77C1316.88 1526.77 1665.88 1521.77 1879.88 1507.77Z"/></g><g id="group0" transform="matrix(0.0999999962205141 0 0 -0.0999999962205141 -0.284734778930222 156.693427841448)" fill="none"><path id="shape01" transform="translate(5.12238155373696, 2.22730449308054)" fill="#000" stroke="#000" stroke-opacity="0" stroke-width="0" stroke-linecap="square" stroke-linejoin="bevel" d="M1179.88 1537.77C1025.88 1524.77 953.878 1501.77 779.878 1411.77C492.878 1263.77 323.878 1198.77 180.878 1182.77C131.878 1176.77 114.878 1169.77 89.8776 1144.77C-6.12238 1047.77 -29.1224 751.773 39.8776 482.773C66.8776 374.773 95.8776 319.773 127.878 313.773C139.878 310.773 198.878 306.773 258.878 302.773C454.878 291.773 603.878 255.773 984.878 127.773C1219.88 48.7727 1367.88 10.7727 1474.88 1.7727C1605.88 -9.2273 2089.88 32.7727 2354.88 77.7727C2568.88 114.773 2661.88 147.773 2736.88 215.773C2783.88 258.773 2804.88 300.773 2804.88 355.773L2804.88 393.773L2863.88 405.773C2983.88 430.773 3071.88 525.773 3077.88 638.773C3080.88 688.773 3082.88 692.773 3110.88 698.773C3244.88 725.773 3296.88 891.773 3199.88 983.773C3166.88 1013.77 3101.88 1037.77 3050.88 1037.77C3028.88 1037.77 3024.88 1041.77 3024.88 1067.77C3024.88 1137.77 2966.88 1220.77 2889.88 1259.77C2835.88 1287.77 2664.88 1300.77 2448.88 1291.77L2277.88 1285.77L2271.88 1324.77C2258.88 1404.77 2164.88 1478.77 2034.88 1512.77C1931.88 1539.77 1382.88 1555.77 1179.88 1537.77ZM1879.88 1507.77C2101.88 1493.77 2221.88 1432.77 2249.88 1316.77L2255.88 1290.77L2043.88 1284.77C1926.88 1280.77 1705.88 1277.77 1552.88 1277.77C1326.88 1277.77 1267.88 1274.77 1237.88 1262.77C1188.88 1241.77 1202.88 1232.77 1261.88 1246.77C1292.88 1253.77 1573.88 1257.77 2074.88 1259.77L2839.88 1262.77L2880.88 1240.77C2950.88 1202.77 3004.88 1123.77 3004.88 1057.77C3004.88 1031.77 3000.88 1027.77 2977.88 1027.77C2899.88 1026.77 1802.88 948.773 1797.88 943.773C1793.88 940.773 1793.88 935.773 1796.88 932.773C1801.88 927.773 2722.88 985.773 2968.88 1006.77C3100.88 1017.77 3143.88 1007.77 3193.88 953.773C3229.88 914.773 3234.88 834.773 3202.88 787.773C3157.88 719.773 3165.88 721.773 2513.88 677.773C2186.88 655.773 1902.88 636.773 1881.88 633.773C1843.88 629.773 1826.88 621.773 1835.88 612.773C1838.88 610.773 2101.88 626.773 2419.88 647.773C2738.88 669.773 3011.88 687.773 3027.88 687.773C3052.88 687.773 3054.88 684.773 3054.88 645.773C3053.88 552.773 2980.88 464.773 2881.88 434.773C2852.88 425.773 2615.88 398.773 2349.88 372.773C2085.88 347.773 1863.88 324.773 1855.88 321.773C1847.88 318.773 1844.88 313.773 1850.88 308.773C1855.88 304.773 2050.88 319.773 2284.88 343.773C2518.88 367.773 2726.88 386.773 2748.88 386.773L2787.88 387.773L2781.88 341.773C2771.88 249.773 2673.88 173.773 2513.88 133.773C2262.88 69.7727 1622.88 6.7727 1447.88 27.7727C1329.88 42.7727 1283.88 54.7727 969.878 157.773C571.878 287.773 397.878 327.773 218.878 327.773C146.878 327.773 135.878 330.773 115.878 351.773C66.8776 403.773 24.8776 611.773 24.8776 802.773C24.8776 974.773 60.8776 1105.77 117.878 1141.77C129.878 1148.77 168.878 1158.77 204.878 1161.77C311.878 1173.77 466.878 1231.77 722.878 1358.77C986.878 1488.77 1034.88 1504.77 1204.88 1517.77C1316.88 1526.77 1665.88 1521.77 1879.88 1507.77Z"/></g><g id="group01" transform="matrix(0.0999999962205141 0 0 -0.0999999962205141 -0.284734778930202 158.853427841448)" fill="none"><path id="shape02" transform="translate(5.12238155373696, 2.22730449308054)" fill="#000" stroke="#000" stroke-opacity="0" stroke-width="0" stroke-linecap="square" stroke-linejoin="bevel" d="M1179.88 1537.77C1025.88 1524.77 953.878 1501.77 779.878 1411.77C492.878 1263.77 323.878 1198.77 180.878 1182.77C131.878 1176.77 114.878 1169.77 89.8776 1144.77C-6.12238 1047.77 -29.1224 751.773 39.8776 482.773C66.8776 374.773 95.8776 319.773 127.878 313.773C139.878 310.773 198.878 306.773 258.878 302.773C454.878 291.773 603.878 255.773 984.878 127.773C1219.88 48.7727 1367.88 10.7727 1474.88 1.7727C1605.88 -9.2273 2089.88 32.7727 2354.88 77.7727C2568.88 114.773 2661.88 147.773 2736.88 215.773C2783.88 258.773 2804.88 300.773 2804.88 355.773L2804.88 393.773L2863.88 405.773C2983.88 430.773 3071.88 525.773 3077.88 638.773C3080.88 688.773 3082.88 692.773 3110.88 698.773C3244.88 725.773 3296.88 891.773 3199.88 983.773C3166.88 1013.77 3101.88 1037.77 3050.88 1037.77C3028.88 1037.77 3024.88 1041.77 3024.88 1067.77C3024.88 1137.77 2966.88 1220.77 2889.88 1259.77C2835.88 1287.77 2664.88 1300.77 2448.88 1291.77L2277.88 1285.77L2271.88 1324.77C2258.88 1404.77 2164.88 1478.77 2034.88 1512.77C1931.88 1539.77 1382.88 1555.77 1179.88 1537.77ZM1879.88 1507.77C2101.88 1493.77 2221.88 1432.77 2249.88 1316.77L2255.88 1290.77L2043.88 1284.77C1926.88 1280.77 1705.88 1277.77 1552.88 1277.77C1326.88 1277.77 1267.88 1274.77 1237.88 1262.77C1188.88 1241.77 1202.88 1232.77 1261.88 1246.77C1292.88 1253.77 1573.88 1257.77 2074.88 1259.77L2839.88 1262.77L2880.88 1240.77C2950.88 1202.77 3004.88 1123.77 3004.88 1057.77C3004.88 1031.77 3000.88 1027.77 2977.88 1027.77C2899.88 1026.77 1802.88 948.773 1797.88 943.773C1793.88 940.773 1793.88 935.773 1796.88 932.773C1801.88 927.773 2722.88 985.773 2968.88 1006.77C3100.88 1017.77 3143.88 1007.77 3193.88 953.773C3229.88 914.773 3234.88 834.773 3202.88 787.773C3157.88 719.773 3165.88 721.773 2513.88 677.773C2186.88 655.773 1902.88 636.773 1881.88 633.773C1843.88 629.773 1826.88 621.773 1835.88 612.773C1838.88 610.773 2101.88 626.773 2419.88 647.773C2738.88 669.773 3011.88 687.773 3027.88 687.773C3052.88 687.773 3054.88 684.773 3054.88 645.773C3053.88 552.773 2980.88 464.773 2881.88 434.773C2852.88 425.773 2615.88 398.773 2349.88 372.773C2085.88 347.773 1863.88 324.773 1855.88 321.773C1847.88 318.773 1844.88 313.773 1850.88 308.773C1855.88 304.773 2050.88 319.773 2284.88 343.773C2518.88 367.773 2726.88 386.773 2748.88 386.773L2787.88 387.773L2781.88 341.773C2771.88 249.773 2673.88 173.773 2513.88 133.773C2262.88 69.7727 1622.88 6.7727 1447.88 27.7727C1329.88 42.7727 1283.88 54.7727 969.878 157.773C571.878 287.773 397.878 327.773 218.878 327.773C146.878 327.773 135.878 330.773 115.878 351.773C66.8776 403.773 24.8776 611.773 24.8776 802.773C24.8776 974.773 60.8776 1105.77 117.878 1141.77C129.878 1148.77 168.878 1158.77 204.878 1161.77C311.878 1173.77 466.878 1231.77 722.878 1358.77C986.878 1488.77 1034.88 1504.77 1204.88 1517.77C1316.88 1526.77 1665.88 1521.77 1879.88 1507.77Z"/></g><g id="group02" transform="matrix(0.0999999962205141 0 0 -0.0999999962205141 -0.284734778930225 161.013427841448)" fill="none"><path id="shape03" transform="translate(5.12238155373696, 2.22730449308054)" fill="#000" stroke="#000" stroke-opacity="0" stroke-width="0" stroke-linecap="square" stroke-linejoin="bevel" d="M1179.88 1537.77C1025.88 1524.77 953.878 1501.77 779.878 1411.77C492.878 1263.77 323.878 1198.77 180.878 1182.77C131.878 1176.77 114.878 1169.77 89.8776 1144.77C-6.12238 1047.77 -29.1224 751.773 39.8776 482.773C66.8776 374.773 95.8776 319.773 127.878 313.773C139.878 310.773 198.878 306.773 258.878 302.773C454.878 291.773 603.878 255.773 984.878 127.773C1219.88 48.7727 1367.88 10.7727 1474.88 1.7727C1605.88 -9.2273 2089.88 32.7727 2354.88 77.7727C2568.88 114.773 2661.88 147.773 2736.88 215.773C2783.88 258.773 2804.88 300.773 2804.88 355.773L2804.88 393.773L2863.88 405.773C2983.88 430.773 3071.88 525.773 3077.88 638.773C3080.88 688.773 3082.88 692.773 3110.88 698.773C3244.88 725.773 3296.88 891.773 3199.88 983.773C3166.88 1013.77 3101.88 1037.77 3050.88 1037.77C3028.88 1037.77 3024.88 1041.77 3024.88 1067.77C3024.88 1137.77 2966.88 1220.77 2889.88 1259.77C2835.88 1287.77 2664.88 1300.77 2448.88 1291.77L2277.88 1285.77L2271.88 1324.77C2258.88 1404.77 2164.88 1478.77 2034.88 1512.77C1931.88 1539.77 1382.88 1555.77 1179.88 1537.77ZM1879.88 1507.77C2101.88 1493.77 2221.88 1432.77 2249.88 1316.77L2255.88 1290.77L2043.88 1284.77C1926.88 1280.77 1705.88 1277.77 1552.88 1277.77C1326.88 1277.77 1267.88 1274.77 1237.88 1262.77C1188.88 1241.77 1202.88 1232.77 1261.88 1246.77C1292.88 1253.77 1573.88 1257.77 2074.88 1259.77L2839.88 1262.77L2880.88 1240.77C2950.88 1202.77 3004.88 1123.77 3004.88 1057.77C3004.88 1031.77 3000.88 1027.77 2977.88 1027.77C2899.88 1026.77 1802.88 948.773 1797.88 943.773C1793.88 940.773 1793.88 935.773 1796.88 932.773C1801.88 927.773 2722.88 985.773 2968.88 1006.77C3100.88 1017.77 3143.88 1007.77 3193.88 953.773C3229.88 914.773 3234.88 834.773 3202.88 787.773C3157.88 719.773 3165.88 721.773 2513.88 677.773C2186.88 655.773 1902.88 636.773 1881.88 633.773C1843.88 629.773 1826.88 621.773 1835.88 612.773C1838.88 610.773 2101.88 626.773 2419.88 647.773C2738.88 669.773 3011.88 687.773 3027.88 687.773C3052.88 687.773 3054.88 684.773 3054.88 645.773C3053.88 552.773 2980.88 464.773 2881.88 434.773C2852.88 425.773 2615.88 398.773 2349.88 372.773C2085.88 347.773 1863.88 324.773 1855.88 321.773C1847.88 318.773 1844.88 313.773 1850.88 308.773C1855.88 304.773 2050.88 319.773 2284.88 343.773C2518.88 367.773 2726.88 386.773 2748.88 386.773L2787.88 387.773L2781.88 341.773C2771.88 249.773 2673.88 173.773 2513.88 133.773C2262.88 69.7727 1622.88 6.7727 1447.88 27.7727C1329.88 42.7727 1283.88 54.7727 969.878 157.773C571.878 287.773 397.878 327.773 218.878 327.773C146.878 327.773 135.878 330.773 115.878 351.773C66.8776 403.773 24.8776 611.773 24.8776 802.773C24.8776 974.773 60.8776 1105.77 117.878 1141.77C129.878 1148.77 168.878 1158.77 204.878 1161.77C311.878 1173.77 466.878 1231.77 722.878 1358.77C986.878 1488.77 1034.88 1504.77 1204.88 1517.77C1316.88 1526.77 1665.88 1521.77 1879.88 1507.77Z"/></g><path id="shape1" transform="translate(182.871844297051, 58.1422800819103)" fill="none" stroke="#000" stroke-width="5.6736" stroke-linecap="square" stroke-linejoin="miter" stroke-miterlimit="2" d="M81.2096 0L0 5.82025"/><path id="shape2" transform="translate(186.510104639245, 90.2179154431593)" fill="none" stroke="#000" stroke-width="5.6736" stroke-linecap="square" stroke-linejoin="miter" stroke-miterlimit="2" d="M80.8621 0L0 5.81097"/><path id="shape3" transform="translate(187.843428803282, 119.268452502176)" fill="none" stroke="#000" stroke-width="5.6736" stroke-linecap="square" stroke-linejoin="miter" stroke-miterlimit="2" d="M78.9139 0L0 7.14978"/><path id="shape4" transform="translate(124.650133388164, 30.4839481320131)" fill="none" stroke="#000" stroke-width="5.6736" stroke-linecap="square" stroke-linejoin="miter" stroke-miterlimit="2" d="M89.169 0L0 1.67513"/><path id="shape5" transform="translate(281.905743244912, 31.0964480394713)" fill="none" stroke="#000" stroke-width="5.6736" stroke-linecap="square" stroke-linejoin="miter" stroke-miterlimit="2" d="M6.26908 1.64438L0 0"/><path id="shape6" transform="translate(267.725219794256, 56.3747047785755)" fill="none" stroke="#000" stroke-width="5.6736" stroke-linecap="square" stroke-linejoin="miter" stroke-miterlimit="2" d="M35.3183 0L0 1.82707"/><path id="shape7" transform="translate(113.168307707065, 4.91026576139083)" fill="none" stroke="#000" stroke-width="5.6736" stroke-linecap="square" stroke-linejoin="miter" stroke-miterlimit="2" d="M14.7692 0L0 1.23156"/><path id="shape8" transform="translate(100.266227526034, 5.6843015410077)" fill="none" stroke="#000" stroke-width="5.6736" stroke-linecap="square" stroke-linejoin="miter" stroke-miterlimit="2" d="M9.96403 0L0 3.11276"/><path id="shape9" transform="translate(46.1778577125441, 19.613501401666)" fill="none" stroke="#000" stroke-width="5.6736" stroke-linecap="square" stroke-linejoin="miter" stroke-miterlimit="2" d="M29.7125 0L0 13.7526"/><path id="shape10" transform="translate(18.1340701673237, 34.8786674560638)" fill="none" stroke="#000" stroke-width="5.6736" stroke-linecap="square" stroke-linejoin="miter" stroke-miterlimit="2" d="M24.6245 0L0 6.16245"/><path id="shape11" transform="translate(13.8005190705456, 40.8642189218172)" fill="none" stroke="#000" stroke-width="5.6736" stroke-linecap="square" stroke-linejoin="miter" stroke-miterlimit="2" d="M4.86992 0L0 1.78108"/><path id="shape12" transform="translate(15.8833335325414, 126.308911822391)" fill="none" stroke="#000" stroke-width="5.6736" stroke-linecap="square" stroke-linejoin="miter" stroke-miterlimit="2" d="M0 0L14.7743 0.939796"/><path id="shape13" transform="translate(42.8344251179319, 127.36135134605)" fill="none" stroke="#000" stroke-width="5.6736" stroke-linecap="square" stroke-linejoin="miter" stroke-miterlimit="2" d="M0 0L39.3746 10.4335"/><path id="shape14" transform="translate(190.918805010742, 149.555564535432)" fill="none" stroke="#000" stroke-width="5.6736" stroke-linecap="square" stroke-linejoin="miter" stroke-miterlimit="2" d="M0 5.96444L43.1084 0"/></svg>