<svg xmlns="http://www.w3.org/2000/svg" width="198pt" height="254.16pt" viewBox="0 0 198 254.16"><path id="shape0" transform="translate(13.3046678372314, 12.5939098887285)" fill="#ffd200" fill-rule="evenodd" stroke="#ffd200" stroke-width="5.6736" stroke-linecap="square" stroke-linejoin="bevel" d="M69.3562 10.6453C41.4469 38.5545 56.1706 73.441 44.9403 107.132C36.2584 133.178 -5.08934 165.564 0.521165 193.617C9.55211 238.772 134.31 241.095 169.079 229.505C171.357 228.746 172.057 225.332 173.197 223.622C177.536 217.113 154.856 201.73 150.546 196.559C137.39 180.771 141.716 155.364 133.19 138.314C128.142 128.217 111.244 130.427 107.598 119.487C105.106 112.011 137.69 46.3585 143.192 35.3553C154.366 13.0069 98.196 23.9058 87.0062 1.52609C86.9233 1.36038 86.0221 0.739903 85.8295 0.64359C77.9562 -3.29304 71.8204 12.1161 67.8853 12.1161"/><g id="group0" transform="matrix(0.0887766569825102 0 0 -0.0888517279981228 0.0685964214012031 239.556214891708)" fill="none" stroke="maroon" stroke-width="1" stroke-linecap="square" stroke-linejoin="bevel"><path id="shape1" transform="translate(309.597436004182, 62.0148268717689)" fill="#000" stroke="#000" stroke-opacity="0" stroke-width="0" stroke-linecap="square" stroke-linejoin="bevel" d="M745.403 2396.99C741.403 2391.99 741.403 2360.99 745.403 2327.99L752.403 2268.99L700.403 2250.99C648.403 2232.99 648.403 2232.99 601.403 2132.99C521.403 1961.99 518.403 1954.99 504.403 1887.99C487.403 1806.99 486.403 1787.99 503.403 1787.99C511.403 1787.99 516.403 1797.99 516.403 1810.99C515.403 1822.99 520.403 1831.99 528.403 1829.99C535.403 1828.99 540.403 1838.99 540.403 1857.99C540.403 1879.99 546.403 1890.99 564.403 1898.99C583.403 1907.99 587.403 1916.99 586.403 1946.99C585.403 1983.99 637.403 2098.99 658.403 2105.99C676.403 2111.99 684.403 2056.99 671.403 2023.99C635.403 1936.99 621.403 1894.99 615.403 1858.99C611.403 1832.99 600.403 1813.99 585.403 1803.99C549.403 1779.99 511.403 1725.99 489.403 1665.99C467.403 1605.99 464.403 1492.99 480.403 1362.99C486.403 1309.99 486.403 1241.99 480.403 1162.99C467.403 1007.99 468.403 967.985 485.403 940.985C493.403 928.985 496.403 916.985 492.403 914.985C488.403 911.985 446.403 904.985 398.403 897.985C350.403 891.985 307.403 880.985 302.403 874.985C285.403 852.985 260.403 758.985 260.403 719.985C260.403 697.985 253.403 641.985 245.403 593.985C229.403 501.985 183.403 402.985 151.403 392.985C141.403 389.985 129.403 369.985 123.403 344.985C115.403 314.985 103.403 297.985 86.4026 289.985C71.4026 283.985 60.4026 271.985 60.4026 263.985C60.4026 255.985 47.4026 244.985 30.4026 238.985C-11.5974 224.985 -9.59744 192.985 33.4026 173.985C50.4026 166.985 92.4026 147.985 125.403 132.985C158.403 117.985 230.403 85.9852 285.403 60.9852C340.403 35.9852 394.403 11.9852 405.403 6.98517C427.403 -4.01483 1594.4 -1.01483 1605.4 8.98517C1618.4 21.9852 1598.4 87.9852 1581.4 87.9852C1558.4 88.9852 1534.4 108.985 1526.4 134.985C1522.4 146.985 1504.4 164.985 1486.4 175.985C1461.4 190.985 1448.4 208.985 1436.4 244.985C1426.4 275.985 1404.4 309.985 1375.4 337.985C1351.4 360.985 1322.4 401.985 1311.4 427.985C1283.4 493.985 1247.4 701.985 1253.4 759.985C1257.4 790.985 1255.4 807.985 1247.4 810.985C1241.4 812.985 1237.4 829.985 1238.4 849.985C1240.4 881.985 1238.4 885.985 1210.4 890.985C1189.4 895.985 1180.4 902.985 1180.4 917.985C1180.4 935.985 1174.4 937.985 1113.4 937.985C1000.4 937.985 972.403 945.985 965.403 978.985C961.403 994.985 954.403 1009.99 949.403 1012.99C922.403 1029.99 963.403 1284.99 1012.4 1404.99C1028.4 1444.99 1039.4 1456.99 1059.4 1460.99C1077.4 1464.99 1091.4 1477.99 1102.4 1500.99C1120.4 1538.99 1116.4 1551.99 1091.4 1537.99C1081.4 1532.99 1068.4 1532.99 1060.4 1537.99C1048.4 1545.99 1050.4 1555.99 1073.4 1602.99C1088.4 1632.99 1100.4 1670.99 1100.4 1685.99C1100.4 1705.99 1109.4 1718.99 1135.4 1735.99C1154.4 1747.99 1170.4 1763.99 1170.4 1770.99C1170.4 1802.99 1222.4 1914.99 1246.4 1933.99C1270.4 1953.99 1274.4 1965.99 1279.4 2040.99C1280.4 2051.99 1288.4 2057.99 1304.4 2057.99C1327.4 2057.99 1358.4 2082.99 1347.4 2093.99C1344.4 2096.99 1332.4 2094.99 1321.4 2087.99C1294.4 2073.99 1280.4 2082.99 1280.4 2112.99C1280.4 2143.99 1187.4 2227.99 1154.4 2227.99C1126.4 2227.99 1055.4 2193.99 1031.4 2169.99C1022.4 2160.99 1003.4 2138.99 988.403 2120.99L962.403 2086.99L946.403 2109.99C937.403 2121.99 930.403 2139.99 930.403 2149.99C930.403 2159.99 914.403 2184.99 895.403 2206.99C876.403 2227.99 860.403 2251.99 860.403 2260.99C860.403 2269.99 856.403 2278.99 851.403 2281.99C846.403 2285.99 839.403 2306.99 835.403 2330.99C831.403 2353.99 821.403 2380.99 812.403 2390.99C795.403 2409.99 755.403 2413.99 745.403 2396.99ZM926.403 1333.99C922.403 1261.99 912.403 1178.99 904.403 1150.99C891.403 1106.99 891.403 1091.99 901.403 1062.99C911.403 1035.99 911.403 1024.99 902.403 1015.99C895.403 1008.99 890.403 993.985 890.403 980.985C890.403 962.985 884.403 957.985 865.403 957.985C846.403 957.985 835.403 967.985 819.403 999.985C800.403 1036.99 798.403 1052.99 803.403 1127.99C806.403 1177.99 815.403 1225.99 825.403 1245.99C839.403 1272.99 840.403 1283.99 830.403 1313.99C816.403 1355.99 824.403 1424.99 845.403 1447.99C853.403 1456.99 875.403 1463.99 896.403 1463.99L933.403 1463.99ZM664.403 1438.99C689.403 1410.99 700.403 1314.99 684.403 1254.99C672.403 1209.99 672.403 1170.99 684.403 1011.99L688.403 960.985L642.403 949.985C537.403 924.985 533.403 924.985 526.403 949.985C510.403 1000.99 510.403 1095.99 525.403 1152.99C533.403 1185.99 540.403 1225.99 540.403 1243.99C540.403 1291.99 574.403 1382.99 606.403 1421.99C640.403 1462.99 642.403 1463.99 664.403 1438.99Z"/></g></svg>