<svg xmlns="http://www.w3.org/2000/svg" width="150pt" height="150pt" viewBox="0 0 484 485"><ellipse id="shape0" transform="translate(8.99999999999928, 5.99999999999952)" rx="234.999999999981" ry="239.499999999981" cx="234.999999999981" cy="239.499999999981" fill="#242426" fill-rule="evenodd" stroke="#000" stroke-width="1.89999999999985" stroke-linecap="square" stroke-linejoin="bevel"/><path id="shape1" transform="translate(333.754398521405, 313.95540877861)" fill="#ffe240" fill-rule="evenodd" stroke="#000" stroke-width="1.89999999999985" stroke-linecap="square" stroke-linejoin="bevel" d="M0.707107 27.5772L82.7315 0L89.0955 9.19239L0 91.9239Z"/><path id="shape2" transform="translate(324.562010426536, 414.364571045643)" fill="#ffe240" fill-rule="evenodd" stroke="#000" stroke-width="1.89999999999985" stroke-linecap="square" stroke-linejoin="bevel" d="M0 25.4558L19.0919 0L30.4056 24.7487Z"/><path id="shape3" transform="translate(356.381815370314, 405.879289727302)" fill="#ffe240" fill-rule="evenodd" stroke="#000" stroke-width="1.89999999999985" stroke-linecap="square" stroke-linejoin="bevel" d="M0 9.89949L11.3137 28.2843L24.7487 0Z"/><path id="shape4" transform="translate(420.02142525787, 347.896534051973)" fill="#ffe240" fill-rule="evenodd" stroke="#000" stroke-width="1.89999999999985" stroke-linecap="square" stroke-linejoin="bevel" d="M7.07107 0L0 22.6274L27.5772 2.12132Z"/><path id="shape5" transform="translate(437.69909467108, 312.541195225553)" fill="#ffe240" fill-rule="evenodd" stroke="#000" stroke-width="1.89999999999985" stroke-linecap="square" stroke-linejoin="bevel" d="M0 17.6777L15.5563 31.1127L15.5563 0Z"/><path id="shape6" transform="translate(428.506706576211, 165.462985707646)" fill="#ffe240" fill-rule="evenodd" stroke="#000" stroke-width="1.89999999999985" stroke-linecap="square" stroke-linejoin="bevel" d="M6.36396 0L0 28.9914L21.2132 47.3762L26.8701 21.9203Z"/><path id="shape7" transform="translate(376.887911889638, 74.2462115354821)" fill="#ffe240" fill-rule="evenodd" stroke="#000" stroke-width="1.89999999999985" stroke-linecap="square" stroke-linejoin="bevel" d="M16.2635 0L0 15.5563L28.9914 37.4767Z"/><path id="shape8" transform="translate(340.825466286689, 48.0832608039313)" fill="#ffe240" fill-rule="evenodd" stroke="#000" stroke-width="1.89999999999985" stroke-linecap="square" stroke-linejoin="bevel" d="M34.6482 9.19239L19.799 29.6985L0 0Z"/><path id="shape9" transform="translate(105.358909702732, 62.9325031110277)" fill="#ffe240" fill-rule="evenodd" stroke="#000" stroke-width="1.89999999999985" stroke-linecap="square" stroke-linejoin="bevel" d="M0 10.6066L15.5563 31.8198L28.9914 0Z"/><path id="shape10" transform="translate(65.7609302171413, 89.8025606191069)" fill="#ffe240" fill-rule="evenodd" stroke="#000" stroke-width="1.89999999999985" stroke-linecap="square" stroke-linejoin="bevel" d="M21.9203 0L0 24.7487L38.1838 12.7279Z"/><path id="shape11" transform="translate(25.4558439550224, 170.412733143345)" fill="#ffe240" fill-rule="evenodd" stroke="#000" stroke-width="1.89999999999985" stroke-linecap="square" stroke-linejoin="bevel" d="M22.6274 0L0 27.5772L9.89949 57.9828L31.8198 30.4056Z"/><path id="shape12" transform="translate(209.30360585239, 191.625936439181)" fill="#ffe240" fill-rule="evenodd" stroke="#000" stroke-width="1.89999999999985" stroke-linecap="square" stroke-linejoin="bevel" d="M0 104.652L32.6964 0L76.3675 107.48C55.1543 94.2809 29.6985 93.3381 0 104.652Z"/><path id="shape13" transform="translate(214.253353288106, 56.5685421222721)" fill="#ffe240" fill-rule="evenodd" stroke="#000" stroke-width="1.89999999999985" stroke-linecap="square" stroke-linejoin="bevel" d="M27.7466 0L0 38.8909L27.7466 87.6812L62.9325 43.1335Z"/><path id="shape14" transform="translate(242, 19.0918829662668)" fill="#ffe240" fill-rule="evenodd" stroke="#000" stroke-width="1.89999999999985" stroke-linecap="square" stroke-linejoin="bevel" d="M0 0L8.3158 24.0416L30.9432 6.36396Z"/><path id="shape15" transform="translate(200.818324534066, 19.0918829662668)" fill="#ffe240" fill-rule="evenodd" stroke="#000" stroke-width="1.89999999999985" stroke-linecap="square" stroke-linejoin="bevel" d="M28.2843 0L27.5772 21.2132L0 13.435Z"/><path id="shape16" transform="translate(41.0121930386472, 307.591447789854)" fill="#ffe240" fill-rule="evenodd" stroke="#000" stroke-width="1.89999999999985" stroke-linecap="square" stroke-linejoin="bevel" d="M0 23.3345L2.12132 0L16.2635 23.3345Z"/><path id="shape17" transform="translate(50.9116879100449, 349.31074760503)" fill="#ffe240" fill-rule="evenodd" stroke="#000" stroke-width="1.89999999999985" stroke-linecap="square" stroke-linejoin="bevel" d="M0 4.94975L16.2635 0L16.9706 28.2843Z"/><path id="shape18" transform="translate(115.965511350658, 411.536143939529)" fill="#ffe240" fill-rule="evenodd" stroke="#000" stroke-width="1.89999999999985" stroke-linecap="square" stroke-linejoin="bevel" d="M0 0L33.234 6.36396L22.6274 28.9914Z"/><path id="shape19" transform="translate(152.027956953606, 425.678279470097)" fill="#ffe240" fill-rule="evenodd" stroke="#000" stroke-width="1.89999999999985" stroke-linecap="square" stroke-linejoin="bevel" d="M0 20.5061L9.89949 0L33.234 27.5772Z"/><path id="shape20" transform="translate(61.5182895579709, 316.783835884724)" fill="#ffe240" fill-rule="evenodd" stroke="#000" stroke-width="1.89999999999985" stroke-linecap="square" stroke-linejoin="bevel" d="M0 9.89949L10.6066 0L93.3381 36.7696L82.0244 82.0244Z"/><ellipse id="shape0" transform="translate(83.9999999999864, 150.999999999976)" rx="61.499999999995" ry="83.4999999999933" cx="61.499999999995" cy="83.4999999999933" fill="#c96d2f" fill-rule="evenodd" stroke="#000" stroke-width="1.99999999999984" stroke-linecap="square" stroke-linejoin="bevel"/><ellipse id="shape1" transform="translate(107.999999999982, 181.99999999997)" rx="43.4999999999965" ry="57.9999999999953" cx="43.4999999999965" cy="57.9999999999953" fill="#94939b" fill-rule="evenodd" stroke="#000" stroke-width="1.99999999999984" stroke-linecap="square" stroke-linejoin="bevel"/><rect id="shape2" transform="translate(107.999999999982, 236.999999999962)" fill="#000" fill-rule="evenodd" stroke="#000" stroke-width="1.99999999999984" stroke-linecap="square" stroke-linejoin="bevel" width="83.9999999999932" height="13.9999999999989"/><ellipse id="shape3" transform="translate(309.99999999995, 160.999999999974)" rx="56.4999999999955" ry="80.4999999999935" cx="56.4999999999955" cy="80.4999999999935" fill="#c96d2f" fill-rule="evenodd" stroke="#000" stroke-width="1.99999999999984" stroke-linecap="square" stroke-linejoin="bevel"/><ellipse id="shape4" transform="translate(321.999999999948, 190.99999999997)" rx="44.9999999999964" ry="56.4999999999955" cx="44.9999999999964" cy="56.4999999999955" fill="#94939b" fill-rule="evenodd" stroke="#000" stroke-width="1.99999999999984" stroke-linecap="square" stroke-linejoin="bevel"/><rect id="shape5" transform="translate(325.999999999948, 242.99999999996)" fill="#000" fill-rule="evenodd" stroke="#000" stroke-width="1.99999999999984" stroke-linecap="square" stroke-linejoin="bevel" width="84.9999999999931" height="12.9999999999989"/><path id="shape6" transform="translate(326.1642721315, 223.310057665383)" fill="none" stroke="#000" stroke-width="1.99999999999984" stroke-linecap="square" stroke-linejoin="miter" stroke-miterlimit="2" d="M1.72217 0L0 4.07083"/><path id="shape7" transform="translate(324.778631870744, 228.969883902307)" fill="none" stroke="#000" stroke-width="1.99999999999984" stroke-linecap="square" stroke-linejoin="miter" stroke-miterlimit="2" d="M1.02593 0L0 6.32977"/><path id="shape8" transform="translate(323.773226722115, 237.321956363905)" fill="none" stroke="#000" stroke-width="1.99999999999984" stroke-linecap="square" stroke-linejoin="miter" stroke-miterlimit="2" d="M0.350774 0L0 10.4326"/><path id="shape9" transform="translate(324.502682264622, 235.314225159402)" fill="none" stroke="#000" stroke-width="1.99999999999984" stroke-linecap="square" stroke-linejoin="miter" stroke-miterlimit="2" d="M0.0465584 0L0 2.16793"/><path id="shape10" transform="translate(323.644640936667, 248.686599394407)" fill="none" stroke="#000" stroke-width="1.99999999999984" stroke-linecap="square" stroke-linejoin="miter" stroke-miterlimit="2" d="M0 0L1.33774 16.5387"/><path id="shape11" transform="translate(326.322045786207, 265.356775594602)" fill="none" stroke="#000" stroke-width="1.99999999999984" stroke-linecap="square" stroke-linejoin="miter" stroke-miterlimit="2" d="M0 0L6.38388 16.4937"/><path id="shape12" transform="translate(333.365589288411, 283.423863895459)" fill="none" stroke="#000" stroke-width="1.99999999999984" stroke-linecap="square" stroke-linejoin="miter" stroke-miterlimit="2" d="M0 0L16.4031 16.2053"/><path id="shape13" transform="translate(325.508504476739, 267.475701292919)" fill="none" stroke="#000" stroke-width="1.99999999999984" stroke-linecap="square" stroke-linejoin="miter" stroke-miterlimit="2" d="M4.41467 9.13888L0 0"/><path id="shape14" transform="translate(326.487868295248, 221.933621760435)" fill="none" stroke="#000" stroke-width="1.99999999999984" stroke-linecap="square" stroke-linejoin="miter" stroke-miterlimit="2" d="M2.94568 0L0 9.06109"/><path id="shape15" transform="translate(327.820968453386, 220.624529184829)" fill="none" stroke="#94939b" stroke-width="1.99999999999984" stroke-linecap="square" stroke-linejoin="miter" stroke-miterlimit="2" d="M3.07756 0L0 8.54659"/><path id="shape16" transform="translate(326.985447329577, 221.126830520284)" fill="none" stroke="#94939b" stroke-width="1.99999999999984" stroke-linecap="square" stroke-linejoin="miter" stroke-miterlimit="2" d="M3.1675 0L0 11.5779"/><path id="shape17" transform="translate(325.634836580668, 232.126656886076)" fill="none" stroke="#94939b" stroke-width="1.99999999999984" stroke-linecap="square" stroke-linejoin="miter" stroke-miterlimit="2" d="M1.95821 0L0 6.78519"/><path id="shape18" transform="translate(327.819193762751, 220.895757287767)" fill="none" stroke="#94939b" stroke-width="1.99999999999984" stroke-linecap="square" stroke-linejoin="miter" stroke-miterlimit="2" d="M1.96333 0L0 6.21597"/><path id="shape19" transform="translate(326.127091543093, 227.890959107241)" fill="none" stroke="#94939b" stroke-width="1.99999999999984" stroke-linecap="square" stroke-linejoin="miter" stroke-miterlimit="2" d="M1.80292 0L0 6.55274"/><path id="shape20" transform="translate(337.294212786914, 285.040980928021)" fill="none" stroke="#94939b" stroke-width="1.99999999999984" stroke-linecap="square" stroke-linejoin="miter" stroke-miterlimit="2" d="M0 0L2.29069 4.28259"/><path id="shape21" transform="translate(341.85164891212, 289.659234113769)" fill="none" stroke="#94939b" stroke-width="1.99999999999984" stroke-linecap="square" stroke-linejoin="miter" stroke-miterlimit="2" d="M0 0L3.10323 4.68143"/><path id="shape22" transform="translate(339.950007633604, 287.217114157101)" fill="none" stroke="#94939b" stroke-width="1.99999999999984" stroke-linecap="square" stroke-linejoin="miter" stroke-miterlimit="2" d="M0 0L1.82289 3.54001"/><path id="shape23" transform="translate(343.296567480444, 291.904829568987)" fill="none" stroke="#94939b" stroke-width="1.99999999999984" stroke-linecap="square" stroke-linejoin="miter" stroke-miterlimit="2" d="M0 0L4.75296 4.85001"/><path id="shape24" transform="translate(347.89023564042, 296.095802946)" fill="none" stroke="#94939b" stroke-width="1.99999999999984" stroke-linecap="square" stroke-linejoin="miter" stroke-miterlimit="2" d="M0 0L2.4955 2.20558"/><path id="shape25" transform="translate(327.10463600223, 264.401247676946)" fill="none" stroke="#94939b" stroke-width="1.99999999999984" stroke-linecap="square" stroke-linejoin="miter" stroke-miterlimit="2" d="M0 0L2.24323 7.9747"/><path id="shape26" transform="translate(329.866300503292, 273.105895053272)" fill="none" stroke="#94939b" stroke-width="1.99999999999984" stroke-linecap="square" stroke-linejoin="miter" stroke-miterlimit="2" d="M0 0L3.21649 7.28345"/><path id="shape27" transform="translate(333.63254337882, 280.150356333281)" fill="none" stroke="#94939b" stroke-width="1.99999999999984" stroke-linecap="square" stroke-linejoin="miter" stroke-miterlimit="2" d="M0 0L3.52421 6.29492"/><path id="shape28" transform="translate(325.86717662481, 258.595583825705)" fill="none" stroke="#94939b" stroke-width="1.99999999999984" stroke-linecap="square" stroke-linejoin="miter" stroke-miterlimit="2" d="M1.6323 5.84143L0 0"/><path id="shape29" transform="translate(325.616969281453, 242.49999999998)" fill="none" stroke="#000" stroke-width="1.99999999999984" stroke-linecap="square" stroke-linejoin="miter" stroke-miterlimit="2" d="M0.0906986 0L0 14.2192"/><path id="shape30" transform="translate(324.219994680945, 243.971028518905)" fill="none" stroke="#000" stroke-width="1.99999999999984" stroke-linecap="square" stroke-linejoin="miter" stroke-miterlimit="2" d="M0.341081 0L0 9.99674"/><path id="shape31" transform="translate(193.548846831503, 236.748881877717)" fill="none" stroke="#000" stroke-width="1.99999999999984" stroke-linecap="square" stroke-linejoin="miter" stroke-miterlimit="2" d="M0.143006 0L0 14.7864"/><path id="shape32" transform="translate(191.629782045757, 251.318068390083)" fill="none" stroke="#000" stroke-width="1.99999999999984" stroke-linecap="square" stroke-linejoin="miter" stroke-miterlimit="2" d="M0 0L2.00162 0.00485839"/><path id="shape33" transform="translate(191.607682585881, 236.95635543801)" fill="none" stroke="#000" stroke-width="1.99999999999984" stroke-linecap="square" stroke-linejoin="miter" stroke-miterlimit="2" d="M0 0L1.77152 0.23596"/><path id="shape34" transform="translate(112.717950306355, 205.644054017791)" fill="#ffe240" fill-rule="evenodd" stroke="#000" stroke-width="1.99999999999984" stroke-linecap="square" stroke-linejoin="bevel" d="M27.0464 0L27.9376 0.367201L0 15.5445L27.1037 25.6694Z"/><path id="shape35" transform="translate(149.99806433428, 207.879799942091)" fill="#ffe240" fill-rule="evenodd" stroke="#000" stroke-width="1.99999999999984" stroke-linecap="square" stroke-linejoin="bevel" d="M0 0L0.623335 26.3196L30.7833 14.3514Z"/><path id="shape36" transform="translate(120.635404913111, 262.940189345997)" fill="#ffe240" fill-rule="evenodd" stroke="#000" stroke-width="1.99999999999984" stroke-linecap="square" stroke-linejoin="bevel" d="M0 2.79401L25.8587 0L22.6341 24.5257Z"/><path id="shape37" transform="translate(149.676358749137, 264.472111764995)" fill="#ffe240" fill-rule="evenodd" stroke="#000" stroke-width="1.99999999999984" stroke-linecap="square" stroke-linejoin="bevel" d="M1.29487 0L0 23.1315L29.1004 13.2288Z"/><path id="shape38" transform="translate(332.274151727652, 207.486861900913)" fill="#ffe240" fill-rule="evenodd" stroke="#000" stroke-width="1.99999999999984" stroke-linecap="square" stroke-linejoin="bevel" d="M0 19.4382L27.8321 0L27.0926 25.4668Z"/><path id="shape39" transform="translate(366.420385070476, 210.818323631454)" fill="#ffe240" fill-rule="evenodd" stroke="#000" stroke-width="1.99999999999984" stroke-linecap="square" stroke-linejoin="bevel" d="M0 0L0.104914 27.3447L33.5244 13.9728Z"/><path id="shape40" transform="translate(339.583795803652, 267.183850118222)" fill="#ffe240" fill-rule="evenodd" stroke="#000" stroke-width="1.99999999999984" stroke-linecap="square" stroke-linejoin="bevel" d="M0 6.12084L22.984 0L22.4629 27.6261Z"/><path id="shape41" transform="translate(374.86007223046, 267.074673064652)" fill="#ffe240" fill-rule="evenodd" stroke="#000" stroke-width="1.99999999999984" stroke-linecap="square" stroke-linejoin="bevel" d="M0 0L0.487218 25.5172L25.9541 3.83147Z"/><path id="shape01" transform="translate(110.9621009687, 86.6983958889153)" fill="#952535" fill-rule="evenodd" stroke="#000" stroke-width="1.99999999999984" stroke-linecap="square" stroke-linejoin="bevel" d="M0 14.7037C5.68845 14.7722 19.3307 3.76559 23.1773 0.0104815C23.5597 -0.362897 34.9699 9.35966 36.0771 9.93002C46.8881 15.499 61.1033 11.0844 71.7781 18.3879C85.3988 27.707 121.092 79.1647 102.289 97.5209C101.605 98.1892 99.3726 94.2622 99.0793 93.7935C89.7794 78.9372 75.0622 70.5628 63.2314 61.4654C44.7956 47.2889 0.258385 47.3407 0.637816 15.7963"/><path id="shape11" transform="translate(271.019315244374, 105.999993332867)" fill="#952535" fill-rule="evenodd" stroke="#000" stroke-width="1.99999999999984" stroke-linecap="square" stroke-linejoin="bevel" d="M3.97511 78.2915C8.85857 33.019 143.934 44.0704 114.251 7.20931C104.134 -5.3547 105.409 1.08986 89.1638 7.13415C61.7992 17.3156 40.3443 -6.11292 20.7126 24.4413C13.0272 36.4025 -4.54614 59.7758 1.0979 74.9454C1.97116 77.2924 2.94335 82.2279 2.94335 82.2279C2.94335 82.2279 1.85093 75.4313 4.05559 75.6692"/><path id="shape21" transform="translate(141.558399086024, 39.2549401067898)" fill="#384780" fill-rule="evenodd" stroke="#000" stroke-width="1.99999999999984" stroke-linecap="square" stroke-linejoin="bevel" d="M70.9291 0.129778C48.9091 -2.15898 -21.6342 26.4165 6.551 39.1835C17.971 44.3564 30.7613 43.5335 41.3594 48.3341C45.2948 50.1167 48.2443 59.0031 51.5987 56.2804C54.6335 53.817 50.5792 48.288 51.7379 44.5549C55.0838 33.7753 70.4133 11.548 79.9669 7.95118C82.8544 6.86404 88.4486 4.24476 88.4486 4.24476C88.4486 4.24476 75.1617 0.839595 68.3649 0.133135"/><path id="shape31" transform="translate(277.216926873999, 32.1396762282887)" fill="#384780" fill-rule="evenodd" stroke="#000" stroke-width="1.99999999999984" stroke-linecap="square" stroke-linejoin="bevel" d="M1.39507 2.72683C29.5356 34.2159 12.2095 52.0674 19.1288 68.0947C20.3534 70.9313 24.2871 64.6553 27.0726 63.3182C44.9636 54.7303 63.5815 62.1541 82.2545 62.1045C83.6179 62.1009 88.4051 63.4255 88.0784 62.6689C77.2533 37.5945 37.4687 14.4916 13.3008 4.89888C9.04761 3.2107 1.68818 -2.75208 0 1.50111"/><path id="shape41" transform="translate(57.280984172049, 114.698013495628)" fill="#2f846d" fill-rule="evenodd" stroke="#000" stroke-width="1.99999999999984" stroke-linecap="square" stroke-linejoin="bevel" d="M33.1269 0C14.0143 54.003 -22.5054 119.105 19.1076 174.689C23.9082 181.102 27.7243 194.513 27.8443 194.556C28.0243 194.619 28.8639 194.069 29.0553 193.978C39.0176 189.224 12.8528 138.694 10.4827 127.018C3.99313 95.046 16.0871 60.8598 40.3304 37.9429C40.4137 37.8642 57.8289 28.313 58.5501 26.2751C60.4145 21.0073 34.9356 7.42512 32.9661 3.29794C31.2662 -0.264425 33.0307 -1.23996 34.9752 2.83479"/><path id="shape51" transform="translate(393.999873117853, 113.782098632383)" fill="#2f846d" fill-rule="evenodd" stroke="#000" stroke-width="1.99999999999984" stroke-linecap="square" stroke-linejoin="bevel" d="M16.5469 0.382311C19.5367 14.3229 -1.17361 33.4866 0.0524359 39.2034C1.5735 46.2958 16.161 57.9671 20.1809 67.2502C35.4878 102.598 38.7302 137.326 32.3133 174.879C31.9012 177.291 24.8246 194.48 26.8165 195.768C27.1125 195.96 38.4815 171.414 39.2251 168.53C52.9278 115.395 29.0931 55.4785 17.195 0"/><path id="shape21" transform="translate(192.050256718739, 306.49183706118)" fill="#151516" fill-rule="evenodd" stroke="#000" stroke-width="1.89999999999985" stroke-linecap="square" stroke-linejoin="bevel" d="M0.341235 77.6497C4.20176 25.2573 3.77305 9.53159 56.6293 0.380796C64.3083 -0.948632 84.3978 1.17668 89.568 7.16948C110.72 31.6865 115.266 103.135 106.284 135.469C104.861 140.592 103.869 151.094 99.9397 154.483C86.2512 166.293 9.87879 161.946 3.98516 138.69C-1.41073 117.398 -0.273402 93.8835 1.32453 72.1975"/><path id="shape22" transform="translate(202.500121564486, 317.930073447654)" fill="#2f846d" fill-rule="evenodd" stroke="#171717" stroke-width="1.89999999999985" stroke-linecap="square" stroke-linejoin="bevel" d="M0.845869 39.3465C-0.595768 39.2939 1.21228 29.8805 1.56522 28.6212C10.2444 -2.34446 79.7033 -13.6375 87.2004 22.609C92.5035 48.248 10.6944 38.9893 0 38.5989"/><path id="shape23" transform="matrix(0.981128677461912 -0.235257119776926 0.10194262410178 0.994790280104929 199.18866568368 380.403541664428)" fill="#323232" fill-rule="evenodd" stroke="#171717" stroke-width="1.89999999999985" stroke-linecap="square" stroke-linejoin="bevel" d="M0 19.708C2.73536 -15.751 107.674 -1.83743 90.0502 49.2121C68.1085 112.769 -4.05316 82.9679 0.903128 18.7186"/><path id="shape24" transform="translate(203.603424576121, 399.018813355291)" fill="#576863" fill-rule="evenodd" stroke="#000" stroke-width="1.89999999999985" stroke-linecap="square" stroke-linejoin="bevel" d="M0 15.7841C6.57555 36.0227 8.30163 39.3942 15.4373 44.0199C22.573 48.6456 27.2764 51.2592 35.0422 52.1858C42.8081 53.1124 46.8143 53.8165 51.5694 52.6968C56.3245 51.577 65.3416 48.3743 68.1149 46.6702C70.8882 44.9661 75.9203 40.8269 79.2599 36.1206C82.5994 31.4142 86.3347 25.5636 86.9009 22.5613C87.4672 19.559 88.5692 17.0554 89.0593 11.7134C89.3861 8.15203 88.6027 5.06986 86.7092 2.46688L80.5385 0L72.4164 15.6325L59.7615 4.60858L48.6105 24.7323L38.3966 8.93355L27.5626 22.7862L11.7873 4.57188C11.7873 4.57188 7.85821 8.30927 0 15.7841Z"/><rect id="shape25" transform="translate(218.162763987573, 384.989444528703)" fill="#000" fill-rule="evenodd" stroke="#0a0c0b" stroke-width="1.89999999999985" stroke-linecap="square" stroke-linejoin="bevel" width="59.5436247850589" height="13.1313145764699"/></svg>