<svg xmlns="http://www.w3.org/2000/svg" width="375pt" height="373.5pt" viewBox="0 0 375 373.5"><ellipse id="shape0" transform="translate(0, 3.74999999999969)" rx="187.499999999985" ry="182.999999999985" cx="187.499999999985" cy="182.999999999985" fill="#e9c516" fill-rule="evenodd" stroke="#000" stroke-width="1.07999999999991" stroke-linecap="square" stroke-linejoin="bevel"/><path id="shape1" transform="translate(116.846650969703, 173.232851900207)" fill="#966a00" fill-rule="evenodd" stroke="#000" stroke-width="2.29499999999982" stroke-linecap="square" stroke-linejoin="bevel" d="M4.51097 0.64139C9.3047 0.76154 35.3653 -0.420119 38.0688 2.42241C39.3739 3.79457 34.2292 4.60605 33.3074 4.88788C26.0004 7.12173 24.9103 11.7774 24.6909 20.5332C24.2752 37.1175 24.6798 53.7874 24.2679 70.2214C24.14 75.3245 37.7763 78.4634 34.0774 81.9814C32.2012 83.7659 15.3568 83.601 12.4285 83.2012C-4.85017 80.8417 11.9676 76.8858 15.4387 61.5407C16.4038 57.2742 15.5351 10.0631 12.5772 6.9531C11.851 6.18961 -2.13933 2.95484 0.281002 0.652862C1.83836 -0.828337 5.527 0.666856 7.56383 0.717907"/><path id="shape2" transform="translate(216.149906409773, 176.738120570509)" fill="#966a00" fill-rule="evenodd" stroke="#0a0c0b" stroke-width="2.29499999999982" stroke-linecap="square" stroke-linejoin="bevel" d="M5.15316 3.94153C16.5554 16.2111 23.713 73.5727 3.71104 82.6741C2.60129 83.1791 -0.697559 82.5376 0.13243 83.4307C3.05584 86.5765 28.0048 84.7848 31.8138 84.9244C33.5499 84.988 37.0222 85.1152 37.0222 85.1152C37.0222 85.1152 33.5171 84.108 32.3342 82.8351C27.7253 77.8756 16.4091 50.1073 25.0617 42.0663C28.8119 38.5811 36.2725 45.0313 37.5039 47.7375C41.5274 56.5799 40.2421 45.6915 40.4396 40.2995C41.5852 9.03217 24.2889 54.0725 25.4316 22.8828C25.5083 20.7894 25.6082 18.2175 26.5537 16.488C30.2321 9.75902 46.2148 3.41916 50.9524 13.831C51.851 15.8057 55.791 21.112 53.6335 16.3705C52.1089 13.0198 52.7679 4.4964 50.4963 2.05195C48.5164 -0.078523 4.28416 -1.03124 1.4666 1.58715C0.659643 2.33706 6.78861 4.73398 6.78699 4.77815"/><path id="shape3" transform="translate(158.445457879324, 101.375061060234)" fill="#966a00" fill-rule="evenodd" stroke="#0a0c0b" stroke-width="2.29499999999982" stroke-linecap="square" stroke-linejoin="bevel" d="M0 246.135C12.4316 258.621 23.8657 206.297 19.1437 192.027C14.4771 177.925 25.6899 98.5164 25.741 75.1249C25.7873 53.9552 30.762 26.5351 27.0268 7.64442C26.7977 6.48554 25.7519 -0.00104604 26.2305 1.2653e-07C28.9163 0.00587123 29.8028 18.3251 30.5758 20.661C48.1542 73.7832 30.8083 145.231 24.6561 199.519C24.5799 200.191 24.6646 205.069 25.1307 205.537C27.4457 207.862 26.4458 199.064 26.4529 195.783C26.475 185.703 29.6083 165.707 29.6083 165.707C29.6083 165.707 29.407 171.799 28.4505 174.648C26.1248 181.575 24.9592 252.856 38.1987 252.885C55.0133 252.922 0.6603 241.624 0.647594 247.437C0.633159 254.04 33.7126 251.965 36.0815 254.344"/><path id="shape4" transform="translate(137.988628191694, 110.600501634267)" fill="#966a00" fill-rule="evenodd" stroke="#0a0c0b" stroke-width="2.29499999999982" stroke-linecap="square" stroke-linejoin="bevel" d="M38.3651 0.258131C23.5833 -0.271653 0.50954 23.1745 0.00242374 37.3238C-0.163773 41.9609 8.2652 32.2408 10.4876 28.1676C12.2349 24.9653 39.6983 -0.25437 39.9369 0.00194011C41.6188 1.8089 36.1027 3.11824 34.2957 4.80016C22.2323 16.0288 5.01601 36.2272 18.5833 50.8032C20.3406 52.6911 16.5298 66.6684 20.6659 66.8167C21.0856 66.8317 21.3788 60.0049 21.3969 59.4985C21.88 46.0208 29.5771 32.1189 37.9053 21.8059C40.6621 18.3922 42.9707 14.5635 45.0187 10.8099C46.0113 8.99072 48.8657 3.46757 47.8731 5.28678C36.5914 25.9637 33.9616 57.7223 33.1156 81.3265C32.962 85.6118 35.0035 94.0514 35.0035 94.0514C35.0035 94.0514 39.1423 83.5097 40.2671 77.9888C43.6147 61.5566 38.4317 48.1988 40.4622 33.3047C44.8514 1.10876 47.743 2.0006 30.3556 1.37743"/><path id="shape5" transform="translate(103.785274342997, 107.631686212559)" fill="#966a00" fill-rule="evenodd" stroke="#0a0c0b" stroke-width="2.29499999999982" stroke-linecap="square" stroke-linejoin="bevel" d="M60.9919 3.59335C43.0426 2.95004 -10.6232 48.5316 1.86462 61.9478C3.49759 63.7022 4.62898 58.0275 6.13478 56.1629C15.6363 44.3969 28.9191 31.3347 40.8633 20.2171C41.5565 19.5718 42.3755 18.9315 42.9704 18.1049C50.0317 8.29345 61.9666 -0.434539 74.5586 0.0167636C74.8184 0.0260725 75.4994 -0.0708013 75.4894 0.206386"/><path id="shape6" transform="translate(88.7496004463056, 96.2676275976581)" fill="#966a00" fill-rule="evenodd" stroke="#0a0c0b" stroke-width="2.29499999999982" stroke-linecap="square" stroke-linejoin="bevel" d="M75.2696 7.26135C62.6627 -2.63038 -0.980714 -6.04839 2.28509 21.0126C2.39355 21.9114 1.4362 24.5259 1.74113 23.6735C2.47313 21.6273 9.61725 19.7205 11.6098 18.4043C26.6469 8.47165 42.6467 8.47955 57.893 6.63959C58.3917 6.5794 63.086 6.66094 63.1265 6.99665C63.58 10.7541 55.4287 6.15069 51.7731 7.13099C32.6568 12.2573 -3.16644 15.7775 0.224683 43.877C0.352699 44.9377 3.58526 40.7183 4.19819 39.9371C15.5922 25.4156 45.7776 18.3796 61.2679 11.052C62.2104 10.6062 64.2396 10.0755 64.2396 10.0755C64.2396 10.0755 58.2521 12.609 55.1396 13.5218C40.3625 17.8551 14.5628 27.7428 8.76179 43.9589C8.69054 44.1581 3.77906 49.0883 3.31183 55.1212C3.07711 58.1518 -1.21918 66.2366 0.657178 63.8452C5.46143 57.7222 30.7328 37.8198 35.1313 41.2709"/><path id="shape7" transform="translate(112.36670196016, 55.5033473401926)" fill="#966a00" fill-rule="evenodd" stroke="#0a0c0b" stroke-width="2.29499999999982" stroke-linecap="square" stroke-linejoin="bevel" d="M70.4928 45.8764C56.8271 43.6779 34.9122 -1.08385 5.78869 0.0200847C-12.1807 0.70122 37.553 19.7489 36.0156 29.3057C35.7395 31.022 32.6867 28.2613 30.9703 27.9852C20.6535 26.3255 0 32.8398 0 32.8398C0 32.8398 7.57085 33.549 11.3218 34.1524C27.2193 36.7099 49.683 44.2572 64.7942 50.7261C66.507 51.4594 78.5573 59.1861 75.0694 61.7073C69.4662 65.7575 70.1178 43.9907 70.0443 44.4474"/><path id="shape8" transform="translate(136.519781674223, 31.181599995287)" fill="#966a00" fill-rule="evenodd" stroke="#0a0c0b" stroke-width="2.29499999999982" stroke-linecap="square" stroke-linejoin="bevel" d="M45.8912 68.7692C45.4668 69.7339 45.3719 68.6032 45.1375 68.0557C42.3574 61.5611 36.6806 55.4525 34.4453 48.8772C30.4488 37.1209 15.6186 16.5437 3.77429 14.9234C2.52457 14.7524 -0.978174 13.7495 0.261473 13.5165C25.0224 8.8624 34.4949 31.0404 44.0193 49.1448C45.2474 51.4794 52.7901 70.7237 52.4216 70.6732C49.2681 70.2418 42.3388 33.2202 39.4718 26.5226C36.6789 19.9981 32.4239 14.558 28.0092 8.74396C27.6439 8.26284 22.2986 3.91307 22.3019 3.91056C33.4538 -4.55729 52.8082 42.4545 51.3752 52.93C51.1007 54.9363 51.7032 58.996 51.7032 58.996C51.7032 58.996 50.6313 52.8251 50.772 49.7212C51.2648 38.8487 43.0546 17.4432 47.8294 7.75009C48.0991 7.20252 47.4094 3.63998 48.0326 3.72525C60.8122 5.47349 57.7901 48.1148 57.4293 56.074C57.3019 58.8838 55.2712 64.2315 55.2712 64.2315C55.2712 64.2315 56.7798 57.4158 57.4818 53.997C60.5366 39.1205 71.3982 -2.8047 92.9853 0.14841C94.9342 0.415029 83.247 13.9171 82.17 14.8795C75.0636 21.2298 51.92 45.8674 60.2242 56.8037C60.347 56.9655 65.0538 52.545 65.0983 52.4916C68.8119 48.0337 72.311 43.9522 76.3157 39.8997C83.8697 32.2554 83.6718 18.3247 96.0535 14.1156C105.029 11.0642 81.7267 29.1369 94.8718 22.7539C96.8609 21.7881 119.312 20.1534 119.229 20.7596C118.732 24.3908 95.1043 32.3236 92.4531 36.202C84.0703 48.4656 71.8281 58.8064 61.7275 69.5147C57.6429 73.845 59.2173 86.0766 53.3195 85.2698C46.2873 84.3078 48.8004 71.5382 44.5081 65.8854"/><path id="shape9" transform="translate(199.053290054629, 66.8925547815378)" fill="#966a00" fill-rule="evenodd" stroke="#0a0c0b" stroke-width="2.29499999999982" stroke-linecap="square" stroke-linejoin="bevel" d="M5.97984 28.5839C26.8777 18.7578 43.7431 4.32507 65.335 0.0707357C66.4869 -0.156208 73.8532 0.0201803 72.858 2.78174C72.6135 3.4603 69.2617 5.32442 68.4789 5.04233C59.7934 1.91241 42.3125 14.1207 42.3125 14.1207C42.3125 14.1207 58.161 12.3697 56.5243 16.9116C55.9324 18.5542 36.0316 21.476 33.6504 21.4185C23.9914 21.1854 6.25093 30.8751 6.25093 30.8751C6.25093 30.8751 15.3852 29.1373 19.9982 29.2486C42.1766 29.7838 90.5368 17.2026 95.0824 55.6207C95.9036 62.5612 65.9271 46.2288 58.5356 41.7651C56.3707 40.4577 37.9205 33.9171 38.0929 33.4386C38.254 32.9916 45.9559 35.5216 46.6838 35.849C59.6034 41.6597 92.178 52.2671 85.1457 71.7816C84.5151 73.5316 82.8844 68.8257 81.827 67.2954C79.0284 63.2454 75.0684 59.4317 70.8989 56.9138C57.0761 48.5664 45.9114 39.0222 29.9862 34.6301C28.3651 34.183 23.601 34.0044 25.1228 33.2888C35.3714 28.47 53.8607 59.3032 50.4594 68.7415C48.8929 73.0887 46.5271 60.3783 44.5609 56.1967C40.6302 47.8369 34.7279 45.3871 26.3722 42.3761C21.3217 40.556 3.74787 27.9297 0.909846 35.8051C-2.66003 45.7114 5.3409 33.4004 6.60073 29.9044C6.87805 29.1349 8.2931 27.2947 7.55286 27.6427"/><path id="shape10" transform="translate(194.323672286886, 96.7182556942423)" fill="#966a00" fill-rule="evenodd" stroke="#0a0c0b" stroke-width="2.29499999999982" stroke-linecap="square" stroke-linejoin="bevel" d="M8.06843 0C22.7693 31.2656 78.0986 40.0164 64.4478 77.8971C64.1785 78.6443 62.9964 73.0957 62.7021 72.4697C60.663 68.133 58.3926 64.9824 55.2983 61.4388C50.7092 56.1835 24.6994 36.7846 27.524 28.9463C29.8184 22.5795 52.8951 73.1855 40.5978 68.754C20.3596 61.4609 23.9117 19.8302 7.56882 13.9408C5.33039 13.1341 4.26834 18.1787 4.01393 19.2403C1.54415 29.5458 14.4887 71.9531 19.381 82.358C19.8508 83.3571 18.262 87.8499 16.6514 87.2695C9.81357 84.8054 -6.97198 12.5788 3.18429 2.90117C4.6051 1.54732 7.90542 -0.346702 8.92217 1.8157"/><ellipse id="shape11" transform="translate(10.3073927928121, 12.6846376116036)" rx="177.192607207173" ry="174.065362388381" cx="177.192607207173" cy="174.065362388381" fill="none" stroke="#000" stroke-width="1.07999999999991" stroke-linecap="square" stroke-linejoin="bevel"/><path id="shape12" transform="translate(46.7156854648726, 239.502009225249)" fill="#966a00" fill-rule="evenodd" stroke="#0a0c0b" stroke-width="1.07999999999991" stroke-linecap="square" stroke-linejoin="bevel" d="M18.205 14.354C24.2552 22.4971 26.6976 14.1115 24.0088 7.64436C18.9669 -4.4828 1.89862 -1.28703 0.0937803 10.9526C-0.59455 15.6206 2.5497 27.0428 8.09666 26.0601C20.4507 23.8713 -0.256577 18.0817 3.29409 13.4449C5.58274 10.4561 7.97774 7.43432 11.52 5.75979C23.2326 0.22282 16.1299 15.4463 19.5346 12.9166"/><path id="shape13" transform="translate(59.2926396450482, 261.397462682274)" fill="#966a00" fill-rule="evenodd" stroke="#0a0c0b" stroke-width="1.07999999999991" stroke-linecap="square" stroke-linejoin="bevel" d="M20.6225 8.8168C5.66538 -4.6297 2.8963 37.2955 20.46 17.7586C22.3746 15.629 21.0888 13.0882 21.6906 10.9021C25.9173 -4.45271 34.2119 18.5823 22.9853 24.9623C10.1812 32.2388 -7.78859 13.2103 3.64687 6.71153C6.52284 5.07713 9.10645 3.54241 12.2991 2.28611C32.7302 -5.7534 21.4998 10.1247 19.6463 8.45852"/><path id="shape14" transform="translate(77.5144639730253, 279.696201613141)" fill="#966a00" fill-rule="evenodd" stroke="#0a0c0b" stroke-width="1.07999999999991" stroke-linecap="square" stroke-linejoin="bevel" d="M0 18.2421C10.6502 19.376 21.4777 -17.2214 24.3724 10.2382C24.7155 13.4932 26.0076 17.2437 25.6844 20.2797C24.9658 27.0296 35.2985 -0.688092 38.6359 14.5444C39.5324 18.6364 31.5462 19.8982 30.2096 23.8684C19.2814 56.3302 20.6943 2.45412 13.1792 14.1862C11.1978 17.2794 9.05949 26.5082 6.45364 24.4463C5.92354 24.0268 0.0552239 18.3953 0.108734 18.3118"/><path id="shape15" transform="translate(111.603226907392, 302.078167466803)" fill="#966a00" fill-rule="evenodd" stroke="#0a0c0b" stroke-width="1.07999999999991" stroke-linecap="square" stroke-linejoin="bevel" d="M23.3576 11.0357C24.9493 10.687 29.9062 4.80272 27.9851 3.57217C11.6952 -6.86256 -11.7331 7.72676 6.82236 19.6126C25.4531 31.5468 26.714 18.0163 16.2162 11.2918C15.7056 10.9647 13.0255 18.1081 9.37488 17.1839C4.31368 15.9026 8.5457 7.50508 11.1939 5.00766C12.7464 3.54352 15.8116 1.78903 17.5504 3.94215C18.4954 5.11242 19.6208 6.11904 20.3529 7.34752C20.8173 8.12684 22.7132 12.4009 23.7296 10.814"/><path id="shape16" transform="translate(140.30992996358, 310.324250586815)" fill="#966a00" fill-rule="evenodd" stroke="#0a0c0b" stroke-width="1.07999999999991" stroke-linecap="square" stroke-linejoin="bevel" d="M14.2029 1.03764C-2.23236 -6.955 -5.52507 34.0224 10.2744 28.5619C49.4743 15.0139 8.12622 2.69275 15.4489 6.25387C34.3393 15.4404 -4.03666 33.6819 5.08453 14.9261C8.26795 8.38003 12.0203 5.03955 13.9652 1.04026"/><path id="shape17" transform="translate(249.614303824519, 293.525535783145)" fill="#966a00" fill-rule="evenodd" stroke="#0a0c0b" stroke-width="1.07999999999991" stroke-linecap="square" stroke-linejoin="bevel" d="M0.19179 6.45011C15.9197 -1.68214 4.25003 -3.61615 14.7302 9.48796C28.1166 26.2258 26.8562 -3.45494 34.5495 11.4238C34.7613 11.8335 35.8268 13.1564 35.7044 13.5408C35.2341 15.0182 27.8629 18.9108 26.3286 20.1378C14.1864 29.8487 16.6807 27.0653 8.58259 13.8126C6.66855 10.6803 -2.57008 7.81784 0.690687 6.13183"/><path id="shape18" transform="translate(276.017369282435, 269.681164951274)" fill="#966a00" fill-rule="evenodd" stroke="#0a0c0b" stroke-width="1.07999999999991" stroke-linecap="square" stroke-linejoin="bevel" d="M9.67193 0.0214842C-19.4919 21.1575 26.23 40.1308 30.0703 16.0683C30.2931 14.6724 24.0928 11.8061 22.7677 10.693C21.2631 9.42905 14.6995 11.3324 14.2434 14.19C14.0861 15.1757 21.0897 14.3086 20.5651 17.5953C19.7019 23.004 -7.99508 22.9904 15.3442 6.07565C15.941 5.64314 11.3308 -1.29244 9.25267 0.213634"/><path id="shape19" transform="translate(289.704885878036, 247.215758874401)" fill="#966a00" fill-rule="evenodd" stroke="#0a0c0b" stroke-width="1.07999999999991" stroke-linecap="square" stroke-linejoin="bevel" d="M29.2412 4.59987C36.0418 11.0982 37.1379 9.478 32.3023 18.6681C19.9148 42.2105 23.4388 23.1256 7.65929 17.2262C5.28123 16.3371 -0.683499 20.2254 0.0644023 17.7993C1.1228 14.3659 11.4933 -3.92636 16.4022 0.764366C21.1104 5.26319 11.9093 5.02532 9.33285 9.54943C8.03415 11.8299 20.5385 18.7238 17.8842 9.04702C17.0915 6.15692 25.3382 10.7931 21.6176 13.3975C17.7906 16.0765 24.1865 21.8665 25.8367 20.1395C33.5793 12.0367 26.8612 11.6592 28.6535 5.84528C28.787 5.41197 28.8088 4.18675 29.4616 4.81047"/><path id="shape20" transform="translate(224.524119022143, 303.291048137999)" fill="#966a00" fill-rule="evenodd" stroke="#0a0c0b" stroke-width="1.07999999999991" stroke-linecap="square" stroke-linejoin="bevel" d="M20.8458 2.84581C15.4772 -3.41308 13.0797 2.34945 5.3455 4.09586C-6.51261 6.77347 4.65348 11.2931 7.46641 20.4983C8.22193 22.9707 8.88931 25.3299 8.6976 27.8336C8.68429 28.0075 6.7649 31.5457 6.7768 31.5507C8.64828 32.338 16.5369 28.3667 18.4106 27.6026C36.6573 20.1612 26.2809 14.8288 26.2992 17.5539C26.3858 30.4443 4.96224 19.7593 15.7986 15.34C26.2717 11.0689 11.6859 12.5519 10.3896 9.37325C6.97965 1.01183 22.7034 7.91462 20.417 2.3082"/><path id="shape21" transform="translate(197.279354312476, 311.375385970106)" fill="#966a00" fill-rule="evenodd" stroke="#0a0c0b" stroke-width="1.07999999999991" stroke-linecap="square" stroke-linejoin="bevel" d="M0 1.45203C5.89504 6.31626 3.27645 13.956 3.90564 20.5233C3.9109 20.5782 1.12438 30.3256 1.00136 30.2241C-2.72588 27.1486 10.3501 27.5733 15.1603 27.1124C19.0851 26.7364 20.3149 24.7478 22.4461 22.165C25.1704 18.8634 16.9906 10.54 16.9906 10.54C16.9906 10.54 21.9813 3.36174 19.5268 1.33642C18.6849 0.641713 15.7525 -0.10334 14.5501 0.0118591C-9.51064 2.31702 9.00718 -0.220295 15.1522 4.85019C17.7843 7.02208 13.531 10.422 11.3692 10.201C10.4843 10.1105 9.87868 9.58925 9.31103 8.96634C5.30752 4.57308 9.97625 13.2444 14.7578 12.7863C21.6721 12.1238 11.768 36.5397 9.64538 14.3846"/></svg>